<svg xmlns="http://www.w3.org/2000/svg" xmlns:xlink="http://www.w3.org/1999/xlink" width="100" zoomAndPan="magnify" viewBox="0 0 75 74.999997" height="100" preserveAspectRatio="xMidYMid meet" version="1.0"><defs><clipPath id="8f13a12d6e"><path d="M 11 64 L 56 64 L 56 71.96875 L 11 71.96875 Z M 11 64 " clip-rule="nonzero"/></clipPath><clipPath id="badcbc1618"><path d="M 23 2.96875 L 38 2.96875 L 38 43 L 23 43 Z M 23 2.96875 " clip-rule="nonzero"/></clipPath><clipPath id="894487ee8a"><path d="M 6.796875 32 L 68 32 L 68 68 L 6.796875 68 Z M 6.796875 32 " clip-rule="nonzero"/></clipPath></defs><g clip-path="url(#8f13a12d6e)"><path fill="#ab7123" d="M 55.699219 64.863281 C 55.65625 68.785156 45.84375 71.964844 33.765625 71.964844 C 21.6875 71.964844 11.878906 68.785156 11.832031 64.863281 C 15.097656 67.597656 23.691406 69.554688 33.765625 69.554688 C 43.84375 69.554688 52.4375 67.597656 55.699219 64.863281 Z M 55.699219 64.863281 " fill-opacity="1" fill-rule="evenodd"/></g><g clip-path="url(#badcbc1618)"><path fill="#ab7123" d="M 29.832031 42.183594 C 29.832031 42.183594 27.476562 39.402344 26.707031 35.074219 C 26.339844 33 26.386719 30.589844 27.386719 27.898438 C 27.757812 26.726562 28.414062 25.796875 29.101562 24.902344 C 29.886719 23.882812 30.789062 22.949219 31.683594 21.980469 C 33.671875 19.824219 35.667969 17.578125 36.636719 14.492188 C 37.546875 11.585938 37.566406 7.996094 35.613281 2.96875 C 36.285156 7.855469 35.558594 11.023438 34.207031 13.460938 C 33.425781 14.875 32.394531 15.953125 31.324219 16.984375 C 30.101562 18.15625 28.785156 19.195312 27.617188 20.355469 C 26.90625 21.058594 26.257812 21.808594 25.695312 22.617188 C 24.816406 23.890625 24.152344 25.308594 23.800781 26.957031 C 23.574219 28.21875 23.449219 29.402344 23.503906 30.53125 C 23.597656 32.476562 24.015625 34.191406 24.664062 35.679688 C 26.539062 39.992188 29.832031 42.183594 29.832031 42.183594 Z M 29.832031 42.183594 " fill-opacity="1" fill-rule="evenodd"/></g><path fill="#ab7123" d="M 35.941406 42.183594 C 35.941406 42.183594 34.363281 40.09375 33.929688 36.902344 C 33.730469 35.421875 33.855469 33.746094 34.632812 31.859375 C 34.898438 31.074219 35.378906 30.472656 35.847656 29.871094 C 36.410156 29.148438 37.046875 28.484375 37.671875 27.785156 C 39.140625 26.132812 40.597656 24.414062 41.246094 22.0625 C 41.851562 19.859375 41.792969 17.207031 40.167969 13.496094 C 40.507812 17.070312 39.863281 19.296875 38.816406 21.035156 C 38.226562 22.015625 37.457031 22.722656 36.675781 23.433594 C 35.761719 24.265625 34.785156 25 33.921875 25.835938 C 33.378906 26.363281 32.886719 26.933594 32.46875 27.550781 C 31.800781 28.539062 31.296875 29.640625 31.046875 30.917969 C 30.902344 31.886719 30.8125 32.78125 30.882812 33.640625 C 31.003906 35.117188 31.347656 36.394531 31.886719 37.507812 C 32.40625 38.589844 32.996094 39.46875 33.625 40.179688 C 34.84375 41.550781 35.941406 42.183594 35.941406 42.183594 Z M 35.941406 42.183594 " fill-opacity="1" fill-rule="evenodd"/><g clip-path="url(#894487ee8a)"><path fill="#ab7123" d="M 7.136719 42.488281 C 7.378906 40.660156 8.507812 38.886719 10.523438 37.359375 C 12.964844 35.515625 16.867188 33.976562 21.628906 33.027344 C 21.828125 34.058594 22.128906 35.007812 22.511719 35.882812 C 22.6875 36.285156 22.875 36.667969 23.070312 37.035156 C 19.734375 37.636719 16.855469 38.558594 14.695312 39.714844 C 13.554688 40.324219 12.628906 40.988281 12.007812 41.71875 C 11.597656 42.203125 11.324219 42.695312 11.324219 43.230469 C 11.324219 43.765625 11.597656 44.261719 12.007812 44.742188 C 12.628906 45.476562 13.554688 46.140625 14.695312 46.75 C 18.703125 48.890625 25.179688 50.230469 32.46875 50.230469 C 39.753906 50.230469 46.230469 48.890625 50.238281 46.75 C 51.378906 46.140625 52.304688 45.476562 52.925781 44.742188 C 53.335938 44.261719 53.609375 43.765625 53.609375 43.230469 C 53.609375 42.695312 53.335938 42.203125 52.925781 41.71875 C 52.304688 40.988281 51.378906 40.324219 50.238281 39.714844 C 46.894531 37.929688 41.832031 36.699219 36.011719 36.339844 C 35.917969 35.082031 36.074219 33.6875 36.65625 32.152344 C 44.402344 32.695312 50.90625 34.714844 54.410156 37.359375 C 55.722656 38.351562 56.660156 39.449219 57.21875 40.597656 C 58.269531 40.195312 59.710938 39.769531 61.128906 39.730469 C 63.28125 39.675781 65.367188 40.429688 66.449219 42.945312 C 68.261719 47.167969 66.164062 53.890625 57.671875 55.117188 C 58.066406 54.273438 58.425781 53.402344 58.617188 52.402344 C 63.234375 51.378906 65.15625 46.988281 63.890625 44.039062 C 63.351562 42.785156 62.273438 42.480469 61.203125 42.507812 C 60.003906 42.539062 58.792969 42.9375 57.972656 43.273438 C 58.0625 44.082031 58.109375 44.898438 58.109375 45.726562 C 58.109375 48.554688 57.558594 51.261719 56.550781 53.769531 C 53.351562 61.726562 44.472656 66.761719 35.449219 66.761719 C 25.878906 66.761719 17.59375 60.882812 13.628906 52.34375 C 14.753906 58.675781 18.285156 64.109375 23.175781 67.535156 C 13.609375 64.136719 6.824219 55.648438 6.824219 45.726562 C 6.824219 44.6875 6.992188 43.492188 7.136719 42.488281 Z M 7.136719 42.488281 " fill-opacity="1" fill-rule="evenodd"/></g></svg>